<?xml version="1.0" standalone="no"?>
<!DOCTYPE svg PUBLIC "-//W3C//DTD SVG 20010904//EN"
 "http://www.w3.org/TR/2001/REC-SVG-20010904/DTD/svg10.dtd">
<svg version="1.0" xmlns="http://www.w3.org/2000/svg"
 width="700.000000pt" height="700.000000pt" viewBox="0 0 700.000000 700.000000"
 preserveAspectRatio="xMidYMid meet">
<metadata>
Created by potrace 1.14, written by Peter Selinger 2001-2017
</metadata>
<g transform="translate(0.000000,700.000000) scale(0.100000,-0.100000)"
fill="#000000" stroke="none">
<path d="M1250 6981 c-88 -28 -140 -60 -200 -120 -65 -65 -96 -120 -120 -210
-16 -59 -17 -281 -17 -3155 0 -2868 1 -3095 17 -3152 33 -119 117 -228 218
-282 125 -67 -46 -62 2362 -62 l2185 1 71 24 c155 52 262 165 304 319 16 57
17 285 15 3171 -2 3477 6 3149 -73 3271 -68 105 -180 181 -301 204 -36 7 -783
10 -2230 9 -2055 0 -2179 -1 -2231 -18z m3942 -634 c95 -44 157 -117 183 -217
14 -52 15 -1460 1 -1495 -48 -123 -119 -193 -225 -224 -35 -10 -368 -13 -1638
-13 -876 0 -1612 3 -1635 7 -97 16 -183 84 -235 185 l-28 55 -1 719 c-2 740 0
767 39 841 20 38 62 85 107 116 82 57 -3 55 1758 54 l1617 -1 57 -27z m-2733
-2521 c11 -10 24 -33 29 -50 4 -17 7 -185 7 -374 l-1 -343 -27 -27 -27 -27
-358 -3 c-273 -1 -363 1 -382 11 -53 26 -55 42 -54 420 1 332 1 349 21 375 11
14 31 29 44 33 13 4 182 6 375 5 331 -1 353 -2 373 -20z m1419 3 c19 -11 34
-31 39 -49 4 -16 8 -186 7 -375 l0 -346 -27 -27 -27 -27 -354 -3 c-221 -2
-363 1 -379 7 -15 6 -35 23 -44 39 -16 26 -18 62 -17 373 0 189 4 354 8 367 4
13 21 32 38 42 27 16 59 18 378 18 322 0 350 -1 378 -19z m1431 0 c18 -11 34
-31 38 -49 4 -16 8 -186 7 -377 l-1 -346 -32 -29 -31 -28 -349 0 c-220 0 -359
4 -379 11 -53 18 -56 39 -57 409 0 184 3 348 8 363 5 16 23 37 39 47 28 17 60
18 379 18 320 0 350 -2 378 -19z m-2866 -1318 c49 -26 51 -39 52 -399 0 -185
-3 -350 -7 -365 -9 -37 -44 -67 -77 -68 -14 -1 -174 -2 -355 -2 -353 -2 -370
0 -396 49 -10 18 -13 105 -13 377 0 390 0 391 63 412 47 16 703 12 733 -4z
m1409 5 c23 -4 42 -16 54 -34 16 -25 18 -58 18 -379 0 -376 -1 -387 -50 -414
-38 -20 -709 -20 -746 0 -51 28 -52 37 -53 394 0 183 3 347 6 365 7 31 32 58
66 72 19 8 663 4 705 -4z m1452 -5 c48 -26 50 -38 50 -411 0 -266 -4 -356 -13
-374 -26 -48 -39 -50 -399 -51 -185 0 -349 3 -365 6 -32 9 -54 29 -65 61 -10
28 -8 694 2 725 4 12 20 30 36 40 26 17 56 18 379 17 266 0 356 -3 375 -13z
m-505 -1327 c66 -25 101 -50 140 -100 44 -58 63 -115 63 -191 0 -98 -58 -203
-143 -255 -73 -46 -49 -45 -1374 -44 l-1250 1 -59 28 c-112 52 -180 156 -178
271 1 34 3 68 5 76 16 74 95 169 166 202 29 14 76 24 126 27 44 3 615 5 1269
4 1109 -1 1191 -2 1235 -19z"/>
</g>
</svg>
